<?xml version="1.0" encoding="UTF-8" standalone="no"?>
<!-- Created with Inkscape (http://www.inkscape.org/) -->

<svg
   xmlns:dc="http://purl.org/dc/elements/1.1/"
   xmlns:cc="http://creativecommons.org/ns#"
   xmlns:rdf="http://www.w3.org/1999/02/22-rdf-syntax-ns#"
   xmlns:svg="http://www.w3.org/2000/svg"
   xmlns="http://www.w3.org/2000/svg"
   version="1.1"
   width="30"
   height="30"
   id="svg2">
  <defs
     id="defs4" />
  <metadata
     id="metadata7">
    <rdf:RDF>
      <cc:Work
         rdf:about="">
        <dc:format>image/svg+xml</dc:format>
        <dc:type
           rdf:resource="http://purl.org/dc/dcmitype/StillImage" />
        <dc:title></dc:title>
      </cc:Work>
    </rdf:RDF>
  </metadata>
  <g
     transform="translate(0,-1022.3622)"
     id="layer1">
    <path
       d="M 0,0 0,4.75 0.59375,5.1875 15,15.75 29.40625,5.1875 30,4.75 30,0 0,0 z M 0,7.25 0,20.4375 10.3125,14.8125 0,7.25 z m 30,0 L 19.6875,14.8125 30,20.4375 30,7.25 z M 11.1875,15.46875 0.25,21.4375 0,21.59375 0,30 30,30 30,21.5625 29.75,21.4375 18.8125,15.46875 15.59375,17.8125 15,18.25 14.40625,17.8125 11.1875,15.46875 z"
       transform="translate(0,1022.3622)"
       id="rect2985"
       style="fill:#f0f0f0;fill-opacity:1;stroke:none" />
  </g>
</svg>
