<?xml version="1.0" encoding="UTF-8" standalone="no"?>
<!-- Created with Inkscape (http://www.inkscape.org/) -->

<svg
   xmlns:dc="http://purl.org/dc/elements/1.1/"
   xmlns:cc="http://creativecommons.org/ns#"
   xmlns:rdf="http://www.w3.org/1999/02/22-rdf-syntax-ns#"
   xmlns:svg="http://www.w3.org/2000/svg"
   xmlns="http://www.w3.org/2000/svg"
   version="1.1"
   width="256"
   height="256"
   id="svg2">
  <metadata
     id="metadata8">
    <rdf:RDF>
      <cc:Work
         rdf:about="">
        <dc:format>image/svg+xml</dc:format>
        <dc:type
           rdf:resource="http://purl.org/dc/dcmitype/StillImage" />
        <dc:title></dc:title>
      </cc:Work>
    </rdf:RDF>
  </metadata>
  <defs
     id="defs6" />
  <path
     d="M 193.72468,15.9112 C 181.70725,17.065378 170.94837,24.756155 164.63036,34.838146 141.89691,32.596962 118.37875,31.680042 96.11795,36.193795 80.063596,23.960351 55.047565,15.228103 37.512199,29.571971 12.361354,49.564065 -2.1350982,88.487727 14.883288,118.2627 c 4.811159,8.13926 -0.456204,18.62668 3.357081,27.45417 4.647963,22.5097 12.910294,44.62241 24.225163,64.5214 24.661055,30.88933 67.853578,36.31536 105.059918,35.1489 35.36777,-1.57195 74.47383,-12.39612 95.7847,-42.55283 11.53026,-18.42905 8.8738,-42.01075 0.67782,-60.95206 1.37069,-18.76709 3.01942,-37.50289 1.82492,-56.363717 -0.91098,-22.321891 -4.82842,-48.650231 -23.98456,-62.620557 -8.28158,-5.311842 -18.27983,-7.52059 -28.10365,-6.986806 z"
     id="path4091"
     style="fill:#002255;fill-opacity:1;stroke:none" />
  <path
     d="m 94.398698,47.464803 c 23.647622,-8.599153 75.872152,-2.019392 75.872152,-2.019392 0,0 12.36127,-31.171885 44.60804,-15.048488 32.24678,16.12338 18.27318,114.476057 18.27318,114.476057 C 286.15308,246.33199 63.382921,264.97312 43.261713,189.87974 18.93966,132.11489 28.060439,121.47398 28.060439,121.47398 c 0,0 -31.7978422,-40.367858 15.201274,-83.607039 19.001607,-17.481449 51.136985,9.597862 51.136985,9.597862 z"
     id="path2987"
     style="fill:#ffffff;fill-opacity:1;stroke:none" />
  <path
     d="m 84.622787,113.08345 c 3.022329,-1.00466 13.764731,8.1571 15.833723,14.09103 3.06609,8.79358 -10.14258,11.44326 -14.536213,11.87598 -5.242479,0.51632 -12.318453,-3.54509 -8.708139,-13.80596 3.610295,-10.26085 4.83333,-11.3043 7.410629,-12.16105 z"
     id="path2991"
     style="fill:#000000;stroke:#000000;stroke-width:1.96036959px;stroke-linecap:butt;stroke-linejoin:miter;stroke-opacity:1" />
  <path
     d="m 166.00926,121.69941 c 1.33012,-2.85025 8.19192,-10.25473 14.15619,-12.54105 5.70049,-2.18521 9.50358,20.67631 7.2234,24.47663 -2.28021,3.80034 -6.27054,4.08537 -10.83093,2.18521 -4.56037,-1.90016 -13.58495,-7.61448 -10.54866,-14.12079 z"
     id="path2993"
     style="fill:#000000;stroke:#000000;stroke-width:1.96036959px;stroke-linecap:butt;stroke-linejoin:miter;stroke-opacity:1" />
  <path
     d="m 116.98789,172.39826 c 0.8367,6.17424 13.36189,12.2511 18.81161,11.59098 5.91052,-0.71592 15.96132,-6.27053 17.10144,-12.161 0.98088,-5.06798 -7.37247,-8.9439 -18.81159,-9.12078 -10.23407,-0.15817 -17.63007,5.78997 -17.10146,9.6908 z"
     id="path2995"
     style="fill:#000000;stroke:#000000;stroke-width:1.96036959px;stroke-linecap:butt;stroke-linejoin:miter;stroke-opacity:1" />
  <path
     d="m 210.77155,153.21442 c -9.32009,0.73133 -26.58418,13.80938 -25.44449,19.34407 2.34375,11.38209 1.6326,19.15019 -33.31768,26.85228 -12.79311,2.81928 -64.273808,3.80045 -73.517893,-15.85067 -3.934599,-8.36421 -15.549037,-9.08707 -13.295788,0.2607 0.719378,2.98443 11.993387,23.92166 28.207928,46.30063 51.545663,14.22195 125.640223,1.20288 143.750943,-37.28035 0.14966,-6.40423 -1.23095,-13.82051 -4.48407,-23.46315 -4.63777,-13.74689 -11.23177,-9.84949 -17.67558,-15.17285 -1.01196,-0.83599 -2.49743,-1.12609 -4.22337,-0.99066 z"
     id="path2997"
     style="fill:#e6e6e6;stroke:#000000;stroke-width:0;stroke-linecap:butt;stroke-linejoin:miter;stroke-miterlimit:4;stroke-opacity:1;stroke-dasharray:none" />
</svg>
