<?xml version="1.0" encoding="UTF-8" standalone="no"?>
<!-- Created with Inkscape (http://www.inkscape.org/) -->

<svg
   xmlns:dc="http://purl.org/dc/elements/1.1/"
   xmlns:cc="http://creativecommons.org/ns#"
   xmlns:rdf="http://www.w3.org/1999/02/22-rdf-syntax-ns#"
   xmlns:svg="http://www.w3.org/2000/svg"
   xmlns="http://www.w3.org/2000/svg"
   version="1.1"
   width="512"
   height="512"
   id="svg2">
  <metadata
     id="metadata8">
    <rdf:RDF>
      <cc:Work
         rdf:about="">
        <dc:format>image/svg+xml</dc:format>
        <dc:type
           rdf:resource="http://purl.org/dc/dcmitype/StillImage" />
        <dc:title></dc:title>
      </cc:Work>
    </rdf:RDF>
  </metadata>
  <defs
     id="defs6" />
  <path
     d="m 440.58528,400.24698 a 187.52246,43.864902 0 1 1 -1.01449,-7.39516"
     transform="matrix(1.0878257,-0.0681346,0.05512755,1.5605571,-46.329556,-210.41123)"
     id="path3874"
     style="opacity:0.98999999;fill:#e6e6e6;fill-opacity:1;stroke:none" />
  <path
     d="m 132.4219,121.36192 c -7.88877,0.39365 -15.14718,4.95263 -19.68017,11.1986 -12.828202,-1.32075 -26.055352,-1.35219 -38.662719,0.6609 -11.384466,-8.78658 -30.126663,-12.17368 -40.792293,-0.44059 -15.928862,13.98781 -21.375757,39.20417 -10.868155,57.90229 0.221511,27.5977 15.890839,51.61143 25.26719,76.77941 12.792065,28.52413 26.651714,59.67985 54.673787,76.03781 10.12085,5.14927 23.44472,11.46103 24.26112,24.52462 0.98689,2.74154 1.17408,6.46512 -2.75375,5.94812 -10.15132,2.89227 -21.66496,12.74054 -17.77091,24.30647 4.68238,11.99198 19.76607,11.82299 30.54833,11.41891 4.51509,-0.11585 9.25495,-1.4712 13.47504,-1.76241 -0.38245,11.30093 11.06127,19.60732 21.80974,18.21151 15.88895,0.18436 32.14744,-3.3458 45.93264,-11.19861 4.6978,-2.95459 8.20012,-9.28782 10.7213,-12.77742 6.26853,11.44454 20.9743,10.07323 32.12714,10.35412 16.56263,-0.35549 33.55392,-3.16184 48.50281,-10.24397 11.22647,-7.83642 11.53764,-22.72041 14.50311,-34.77075 8.44178,-21.04669 31.93108,-29.4772 52.28463,-35.06448 16.42037,-6.73239 33.28996,-11.97077 50.41208,-16.08194 30.24958,-10.15525 58.9272,-31.49974 69.46807,-62.5286 8.63141,-33.43878 -6.1007,-68.14666 -26.43605,-94.25187 -12.35818,-15.508 -33.33954,-28.67275 -53.71659,-21.95661 -17.24162,5.55922 -28.09055,28.51761 -16.92641,44.06009 9.54206,14.42528 28.74134,18.70023 37.15734,34.18329 6.72897,9.42266 11.6341,24.64459 1.83584,33.77939 -7.98684,7.10055 -18.59566,9.12401 -28.41876,12.44697 -6.31457,-35.39307 -26.35789,-68.56949 -56.72736,-88.30375 -36.53981,-26.75954 -82.85924,-45.05159 -128.69217,-36.23942 -22.19632,5.06165 -42.21028,19.5899 -57.31482,34.91762 0.0392,-16.33625 -2.06991,-35.61696 -15.93507,-46.22637 -5.3602,-3.54404 -11.88991,-5.13308 -18.28494,-4.88333 z M 236.66072,379.0767 c -3.52473,4.08927 -3.97866,0.12237 0,0 z"
     id="path3826"
     style="fill:#002255;fill-opacity:1;stroke:none" />
  <path
     d="m 72.31514,143.71336 c 14.173057,-5.15385 45.47351,-1.21031 45.47351,-1.21031 0,0 7.40865,-18.68268 26.73556,-9.01922 19.32691,9.66345 10.95192,68.61053 10.95192,68.61053 0,0 34.92186,-58.92419 91.29202,-57.63573 56.37016,1.28846 95.9027,33.63341 108.4652,43.35214 13.01591,10.06951 36.66234,29.40665 46.47222,83.50598 0,0 -2.367,6.48726 32.18061,-8.08239 35.5225,-14.98077 16.0157,-58.33055 -16.00068,-76.34208 -34.42825,-19.3684 0.4061,-62.35411 36.04442,-29.79868 26.58656,24.28669 48.14151,78.36377 25.96579,109.32954 -20.11982,28.09493 -49.88437,42.29331 -78.85023,46.14293 -17.47184,7.14049 -5.19014,3.48245 -41.63333,15.32649 -36.44318,11.84404 -43.05521,32.37175 -45.78844,39.6604 -2.73325,7.28862 -0.14292,21.37799 -11.07586,27.75555 -10.93295,6.37755 -76.65069,15.58941 -64.80665,-3.54326 11.84403,-19.13267 43.95885,-5.85632 37.31401,-21.16364 -1.72929,-3.9837 -1.46882,-2.4301 -1.46547,-6.75436 -5.88026,0.70952 -47.95945,7.27187 -47.95945,7.27187 0,0 -1.40399,30.36379 -14.53817,37.16556 -11.9901,6.20929 -59.93481,17.95086 -50.19032,-4.69553 3.46455,-8.05166 28.17873,-15.12959 18.61402,-17.84975 -8.02384,-3.89826 -11.47267,-14.58307 -16.22022,-22.05854 0,0 6.36313,22.82039 -0.91107,29.61009 -7.68619,7.17424 -57.96496,12.84217 -45.78174,-3.87209 6.56567,-9.0075 20.03892,-4.9829 19.81597,-14.80503 -0.85261,-37.56137 -24.99622,-28.39362 -47.104509,-53.45347 -22.10829,-25.05985 -40.359121,-74.78097 -47.647752,-92.09147 -14.577274,-34.62101 -9.110791,-40.99858 -9.110791,-40.99858 0,0 -19.057843,-24.19423 9.110791,-50.10937 11.388498,-10.4774 30.648641,5.75242 30.648641,5.75242 z"
     id="path2987"
     style="fill:#ffffff;fill-opacity:1;stroke:none" />
  <path
     d="m 66.456007,183.0415 c 1.811415,-0.60214 8.249808,4.88891 9.489848,8.44537 1.837639,5.27038 -6.078896,6.85845 -8.712193,7.1178 -3.142048,0.30945 -7.38299,-2.12473 -5.21917,-8.27452 2.163808,-6.14978 2.896827,-6.77516 4.441515,-7.28865 z"
     id="path2991"
     style="fill:#000000;stroke:#000000;stroke-width:1.17493558px;stroke-linecap:butt;stroke-linejoin:miter;stroke-opacity:1" />
  <path
     d="m 115.23449,188.20542 c 0.7972,-1.70828 4.90978,-6.14611 8.48443,-7.5164 3.41655,-1.30969 5.69591,12.39222 4.3293,14.66992 -1.36663,2.27771 -3.75821,2.44854 -6.49145,1.30969 -2.73323,-1.13885 -8.14206,-4.56369 -6.32228,-8.46321 z"
     id="path2993"
     style="fill:#000000;stroke:#000000;stroke-width:1.17493558px;stroke-linecap:butt;stroke-linejoin:miter;stroke-opacity:1" />
  <path
     d="m 85.853836,218.59147 c 0.501469,3.70049 8.008365,7.34262 11.274623,6.94698 3.542431,-0.42908 9.566321,-3.7582 10.249641,-7.28862 0.58789,-3.03746 -4.41864,-5.36047 -11.274608,-5.46648 -6.133726,-0.0948 -10.566474,3.47018 -10.249656,5.80812 z"
     id="path2995"
     style="fill:#000000;stroke:#000000;stroke-width:1.17493558px;stroke-linecap:butt;stroke-linejoin:miter;stroke-opacity:1" />
  <path
     d="m 99.560424,316.3278 c -0.384287,9.5e-4 -0.752159,0.0296 -1.17493,0.11009 -7.235069,1.40675 5.884566,14.28379 15.310876,22.72766 1.26507,0.67899 2.47323,1.34925 3.67167,2.01942 1.18088,0.66034 2.34699,1.32927 3.45137,2.01942 0.44836,0.28019 0.88742,0.55498 1.3218,0.84449 0.10904,0.0721 0.22236,0.14744 0.33046,0.2203 0.33592,0.22797 0.66449,0.46219 0.99136,0.69761 1.11135,0.79485 2.1598,1.62232 3.15763,2.53346 0.11044,0.10081 0.22153,0.19116 0.33045,0.29374 0.21661,0.20479 0.41358,0.4121 0.62418,0.62417 0.63099,0.63221 1.22497,1.31262 1.79913,2.01943 0.28943,0.3563 0.57031,0.72362 0.84448,1.1015 0.27736,0.38226 0.54661,0.76877 0.80777,1.17493 0.014,0.01 0.0226,0.027 0.0366,0.0366 6.19072,4.26552 12.53232,8.29958 17.3303,11.67593 8.13357,5.72362 6.13087,15.13512 11.89622,30.29131 0.43122,-0.22938 0.82667,-0.46257 1.17493,-0.69763 0.0308,-0.021 0.0434,-0.0522 0.0735,-0.0735 0.32019,-0.22062 0.60429,-0.43671 0.84448,-0.6609 0.22102,-0.2063 0.46449,-0.42613 0.6609,-0.66091 0.006,-0.009 -0.006,-0.029 0,-0.0366 0.19496,-0.23463 0.37907,-0.47366 0.55076,-0.73433 0.006,-0.009 -0.006,-0.028 0,-0.0366 0.5238,-0.80119 0.95828,-1.7131 1.28508,-2.71704 0.004,-0.0106 -0.004,-0.0259 0,-0.0366 0.21891,-0.6779 0.37233,-1.38341 0.51403,-2.12957 0.21256,-1.11923 0.37433,-2.30532 0.44061,-3.5248 0.48604,-8.94285 -2.53346,-19.71689 -2.53346,-19.71689 4.74755,7.47546 8.20497,18.13178 16.2288,22.03004 1.01905,0.28982 1.638,0.64341 1.94599,1.02807 -0.40478,-2.61058 -0.86033,-5.74839 -1.43195,-10.46427 -1.28847,-10.6298 -19.73178,-20.22079 -24.56351,-24.08618 -4.83172,-3.86538 -27.70246,-16.73768 -38.33226,-22.21362 -9.96544,-5.13373 -11.82294,-13.67378 -17.587323,-13.65863 z"
     id="path3789"
     style="fill:#e6e6e6;fill-opacity:1;stroke:none" />
  <path
     d="m 54.815133,225.44771 c -1.350471,-5.60253 5.605806,-5.1746 7.963984,-0.16156 5.540386,11.77778 36.39013,11.19263 44.057603,9.50291 20.94724,-4.6162 21.37587,-9.28398 19.97116,-16.10577 -0.80957,-3.93147 13.89332,-14.19576 17.77497,-10.98905 3.86206,3.19052 7.835,0.85911 10.61462,9.09822 7.27038,21.55027 -0.77588,24.6536 -15.65321,46.24836 -16.28617,23.63973 5.94957,14.00261 8.8974,24.90501 2.37319,8.77712 -17.2062,30.79615 -24.70608,24.80324 -6.68912,-7.30627 -1.81087,-20.67435 -15.84959,-25.96207 -25.154539,-9.4745 -52.192357,-57.69469 -53.070857,-61.33925 z"
     id="path2997"
     style="fill:#e6e6e6;stroke:#000000;stroke-width:0;stroke-linecap:butt;stroke-linejoin:miter;stroke-miterlimit:4;stroke-opacity:1;stroke-dasharray:none" />
  <path
     d="m 272.32572,295.49131 c -8.32613,-8.96235 -33.0969,6.68138 -39.55697,48.48419 -1.41924,9.18387 -8.00335,19.57412 -7.21905,27.00921 5.79715,-0.9022 36.04385,-5.44354 48.00893,-7.22698 0.82946,-3.0956 -2.314,-10.36975 -2.9386,-11.63616 -4.99379,-10.12506 6.34269,-62.01257 25.32808,-79.50396 -16.54673,9.38548 -23.62239,22.8737 -23.62239,22.8737 z"
     id="path3767"
     style="fill:#e6e6e6;stroke:#000000;stroke-width:0;stroke-linecap:butt;stroke-linejoin:miter;stroke-miterlimit:4;stroke-opacity:1;stroke-dasharray:none" />
  <path
     d="m 346.1079,289.0516 c -4.07038,0.005 -7.86748,1.11863 -11.19861,3.74511 -20.36598,16.0578 -19.8897,63.96506 -21.95119,77.10081 0.0533,-0.24292 0.12558,-0.46361 0.18359,-0.69762 0.0208,-0.0822 0.015,-0.1759 0.0366,-0.25702 0.12631,-0.48406 0.27649,-0.95762 0.4406,-1.39523 2.73323,-7.28865 9.34259,-27.81005 45.78577,-39.65408 36.44318,-11.84403 24.16493,-8.17039 41.63678,-15.31088 0.11009,-0.0147 0.22049,-0.0219 0.33045,-0.0366 -20.58709,1.46047 -40.29655,-23.51019 -55.2641,-23.49438 z"
     id="path3795"
     style="fill:#e6e6e6;stroke:none" />
</svg>
